<svg width="218" height="54" viewBox="0 0 218 54" fill="none" xmlns="http://www.w3.org/2000/svg">
<rect width="53.8129" height="53.8129" rx="7.42246" fill="#C2EEE6"/>
<path d="M20.7638 32.4911C22.2442 34.5694 23.0584 37.0188 23.0584 39.6909V42.8083H17.507V36.7961C17.507 35.8312 16.7668 35.0889 15.8046 35.0889H13.584C12.8438 35.0889 12.1776 34.4951 12.1776 33.6787V29.819C12.1776 29.5221 11.9556 29.2994 11.6595 29.2994L10.6972 29.151C10.3271 29.0768 10.1051 28.7056 10.2531 28.4087L12.6217 23.1388C12.6958 23.0646 12.6958 22.9161 12.6958 22.8419C12.6217 22.545 12.6217 22.4708 12.6217 22.2481C12.4737 18.8338 13.51 15.8648 15.5825 13.9349C17.655 11.9309 20.6898 11.0402 24.1687 11.3371C24.4648 11.3371 24.6868 11.4113 24.9829 11.4855C20.3197 13.3411 17.433 17.3493 17.433 22.3965C17.433 25.8109 18.6913 29.5221 20.7638 32.4911Z" fill="#00667F"/>
<path d="M41.3411 23.0626C41.267 22.9884 41.267 22.8399 41.267 22.7657C41.3411 22.4688 41.3411 22.3946 41.3411 22.2461V22.1719C41.4891 18.7576 40.4528 15.7886 38.3803 13.7845C36.3078 11.7805 33.273 10.8898 29.7941 11.1867C23.0584 11.8547 18.4692 16.3082 18.4692 22.3946C18.4692 25.512 19.6535 29.0748 21.578 31.8211C23.2064 34.0479 24.0206 36.7942 24.0206 39.6889V42.8064H36.3078V36.7942C36.3078 35.8293 37.048 35.087 38.0102 35.087H40.2308C40.971 35.087 41.6371 34.4932 41.6371 33.6767V29.8171C41.6371 29.5202 41.8592 29.2975 42.1553 29.2975L43.1915 29.149C43.5616 29.0748 43.7837 28.7037 43.6357 28.4068L41.3411 23.0626ZM39.2685 23.7306C39.2685 24.0275 39.0465 24.2502 38.7504 24.2502H37.7881C37.5661 25.0667 37.27 25.8832 36.8259 26.6254L37.4921 27.2934C37.5661 27.3676 37.6401 27.5161 37.6401 27.6645C37.6401 27.813 37.5661 27.9614 37.4921 28.0357L35.8637 29.6686C35.7896 29.7428 35.6416 29.8171 35.4936 29.8171C35.3455 29.8171 35.1975 29.7428 35.1235 29.6686L34.3833 29.0748C33.6431 29.5202 32.8289 29.8913 32.0147 30.0397V30.9304C32.0147 31.2273 31.7926 31.45 31.4965 31.45H29.2019C28.9059 31.45 28.6838 31.2273 28.6838 30.9304V30.0397C27.8696 29.8171 27.0554 29.5202 26.3152 29.0748L25.501 29.7428C25.427 29.8171 25.2789 29.8913 25.1309 29.8913C24.9829 29.8913 24.8348 29.8171 24.7608 29.7428L23.1324 28.1099C22.9103 27.8872 22.9103 27.5161 23.1324 27.2934L23.7985 26.6254C23.3544 25.8832 22.9843 25.0667 22.8363 24.2502H21.9481C21.652 24.2502 21.4299 24.0275 21.4299 23.7306V21.4297C21.4299 21.1328 21.652 20.9101 21.9481 20.9101H22.8363C23.0584 20.0936 23.3544 19.2772 23.7985 18.5349L23.1324 17.8669C22.9103 17.6442 22.9103 17.2731 23.1324 17.1246L24.7608 15.4917C24.8348 15.4175 24.9829 15.3433 25.1309 15.3433C25.2789 15.3433 25.427 15.4175 25.501 15.4917L26.1672 16.1597C26.9073 15.7144 27.7216 15.3433 28.5358 15.1948V14.3041C28.5358 14.0072 28.7578 13.7845 29.0539 13.7845H31.4225C31.7186 13.7845 31.9406 14.0072 31.9406 14.3041V15.1948C32.7549 15.4175 33.5691 15.7144 34.3093 16.1597L34.9754 15.4917C35.1975 15.269 35.5676 15.269 35.7896 15.4917L37.4181 17.1246C37.4921 17.1989 37.5661 17.3473 37.5661 17.4958C37.5661 17.6442 37.4921 17.7927 37.4181 17.8669L36.7519 18.5349C37.196 19.2772 37.5661 20.0936 37.7141 20.9101H38.6764C38.9725 20.9101 39.1945 21.1328 39.1945 21.4297V23.7306H39.2685Z" fill="#00667F"/>
<path d="M37.3441 21.8756C37.048 21.8756 36.826 21.6529 36.826 21.4302C36.6779 20.4653 36.2338 19.5004 35.6417 18.6839C35.4936 18.4612 35.4936 18.1643 35.7157 17.9417L36.3078 17.3479L35.4196 16.4572L34.8274 17.051C34.6054 17.2736 34.3093 17.2736 34.0872 17.1252C33.273 16.5314 32.3108 16.1603 31.3485 16.0118C31.0525 15.9376 30.9044 15.7149 30.9044 15.4923V14.6758H29.6461V15.4923C29.6461 15.7892 29.4241 16.0118 29.202 16.0118C28.2397 16.1603 27.2775 16.6056 26.4633 17.1994C26.2412 17.3479 25.9452 17.3479 25.7231 17.1252L25.1309 16.5314L24.2427 17.3479L24.8349 17.9417C25.0569 18.1643 25.0569 18.4612 24.9089 18.6839C24.3167 19.5004 23.9466 20.4653 23.7246 21.4302C23.6506 21.7271 23.4285 21.8756 23.2065 21.8756H22.3922V23.1374H23.2065C23.5025 23.1374 23.7246 23.3601 23.7246 23.5827C23.8726 24.5477 24.3167 25.5126 24.9089 26.3291C25.0569 26.5517 25.0569 26.8486 24.8349 27.0713L24.2427 27.6651L25.1309 28.5558L25.7231 27.962C25.9452 27.7393 26.2412 27.7393 26.4633 27.8878C27.2775 28.4816 28.2397 28.8527 29.202 29.0754C29.4981 29.1496 29.6461 29.3723 29.6461 29.5949V30.4114H30.9044V29.5949C30.9044 29.298 31.1265 29.0754 31.3485 29.0754C32.3108 28.9269 33.273 28.4816 34.0872 27.8878C34.3093 27.7393 34.6054 27.7393 34.8274 27.962L35.4196 28.5558L36.3078 27.6651L35.7157 27.0713C35.4936 26.8486 35.4936 26.5517 35.6417 26.3291C36.2338 25.5126 36.6039 24.5477 36.826 23.5827C36.9 23.2858 37.122 23.1374 37.3441 23.1374H38.1583V21.8756H37.3441ZM30.3123 27.8135C27.4255 27.8135 25.0569 25.4384 25.0569 22.5436C25.0569 19.6488 27.4255 17.2736 30.3123 17.2736C33.199 17.2736 35.5676 19.6488 35.5676 22.5436C35.5676 25.4384 33.199 27.8135 30.3123 27.8135Z" fill="#00667F"/>
<path d="M34.4574 22.5434C34.4574 24.8444 32.6069 26.7 30.3123 26.7C28.0177 26.7 26.1672 24.8444 26.1672 22.5434C26.1672 20.2425 28.0177 18.3868 30.3123 18.3868C32.6069 18.3126 34.4574 20.2425 34.4574 22.5434Z" fill="#00667F"/>
<rect x="81.8129" width="53.8129" height="53.8129" rx="7.42246" fill="#FFDD81"/>
<path d="M121.245 28.9942H123.332V37.3445C123.332 38.175 123.002 38.9714 122.415 39.5587C121.828 40.1459 121.031 40.4758 120.201 40.4758H97.2376C96.4071 40.4758 95.6107 40.1459 95.0234 39.5587C94.4362 38.9714 94.1063 38.175 94.1063 37.3445V28.9942H104.544C104.544 29.5479 104.764 30.0789 105.156 30.4703C105.547 30.8618 106.078 31.0818 106.632 31.0818H110.807C111.36 31.0818 111.891 30.8618 112.283 30.4703C112.674 30.0789 112.894 29.5479 112.894 28.9942H121.245ZM110.807 26.9066H106.632V28.9942H110.807V26.9066ZM123.332 21.6877V26.9066H112.894C112.894 26.353 112.674 25.822 112.283 25.4305C111.891 25.039 111.36 24.8191 110.807 24.8191H106.632C106.078 24.8191 105.547 25.039 105.156 25.4305C104.764 25.822 104.544 26.353 104.544 26.9066H94.1063V21.6877C94.1063 20.8572 94.4362 20.0608 95.0234 19.4735C95.6107 18.8863 96.4071 18.5564 97.2376 18.5564H100.369V16.4688C100.42 15.5947 100.814 14.7759 101.464 14.1898C102.115 13.6038 102.97 13.2975 103.845 13.3375H113.594C114.468 13.2975 115.324 13.6038 115.974 14.1898C116.625 14.7759 117.018 15.5947 117.07 16.4688V18.5564H120.201C121.031 18.5564 121.828 18.8863 122.415 19.4735C123.002 20.0608 123.332 20.8572 123.332 21.6877ZM102.457 18.5564H114.982V16.4688C114.982 15.9052 114.345 15.425 113.594 15.425H103.845C103.093 15.425 102.457 15.9052 102.457 16.4688V18.5564Z" fill="#AC640D"/>
<rect x="163.626" width="53.8129" height="53.8129" rx="7.42246" fill="#E9D5FF"/>
<g clip-path="url(#clip0_1655_7666)">
<path d="M186.461 37.6763H188.868V33.2402C189.971 33.4294 191.1 33.4294 192.202 33.2402V37.6763H194.609C197.206 37.6763 199.306 39.7769 199.306 42.3733C199.306 43.0518 198.752 43.6063 198.073 43.6063H182.997C182.319 43.6063 181.764 43.0518 181.764 42.3733C181.758 39.7769 183.865 37.6763 186.461 37.6763Z" fill="#480C84"/>
<path d="M200.383 23.5326V15.1758H203.475C204.754 15.1758 205.791 16.2065 205.791 17.4852V19.2335C205.791 23.7413 202.901 27.7469 198.615 29.156C199.763 27.5055 200.383 25.5484 200.383 23.5326Z" fill="#480C84"/>
<path d="M177.589 15.1758H180.681V23.5391C180.681 25.5484 181.294 27.512 182.449 29.1625C178.163 27.7469 175.273 23.7479 175.273 19.24V17.4917C175.273 16.2065 176.31 15.1758 177.589 15.1758C177.582 15.1758 177.582 15.1758 177.589 15.1758Z" fill="#480C84"/>
<path d="M190.532 32.3072C185.685 32.3072 181.764 28.38 181.758 23.5394V12.5471C181.758 11.2554 182.808 10.2051 184.1 10.2051H196.958C198.249 10.2051 199.3 11.2554 199.3 12.5471V23.5329C199.3 28.38 195.379 32.3072 190.532 32.3072ZM194.087 18.2357L192.085 17.9421L191.191 16.1286C191.008 15.7632 190.565 15.6132 190.199 15.7893C190.056 15.8611 189.932 15.9785 189.86 16.1286L188.966 17.9421L186.97 18.2357C186.566 18.2944 186.285 18.6728 186.344 19.0772C186.37 19.2403 186.442 19.3839 186.559 19.5013L188.007 20.9104L187.668 22.9001C187.596 23.3046 187.87 23.6895 188.268 23.7547C188.431 23.7808 188.594 23.7547 188.738 23.6829L190.532 22.7435L192.319 23.6829C192.678 23.8721 193.128 23.7351 193.318 23.3698C193.396 23.2263 193.422 23.0567 193.389 22.9001L193.05 20.9104L194.498 19.5013C194.792 19.2142 194.798 18.7445 194.511 18.451C194.401 18.3335 194.25 18.2553 194.087 18.2357Z" fill="#480C84"/>
</g>
<defs>
<clipPath id="clip0_1655_7666">
<rect width="33.4011" height="33.4011" fill="white" transform="matrix(-1 0 0 1 207.233 10.2051)"/>
</clipPath>
</defs>
</svg>
